<mxfile host="Electron" modified="2024-06-10T19:52:23.585Z" agent="Mozilla/5.0 (Macintosh; Intel Mac OS X 10_15_7) AppleWebKit/537.36 (KHTML, like Gecko) draw.io/24.5.1 Chrome/124.0.6367.207 Electron/30.0.6 Safari/537.36" etag="4pNUXPRbETMsncNVyqXi" version="24.5.1" type="device">
  <diagram name="bypass strategy left" id="dR8AafDq_mMVZ9N_Uit_">
    <mxGraphModel dx="1173" dy="1989" grid="1" gridSize="10" guides="1" tooltips="1" connect="1" arrows="1" fold="1" page="1" pageScale="1" pageWidth="1654" pageHeight="1169" math="0" shadow="0">
      <root>
        <mxCell id="0" />
        <mxCell id="1" parent="0" />
        <mxCell id="AN7pkXZCnYP8iV07z2iw-234" value="" style="rounded=0;whiteSpace=wrap;html=1;" vertex="1" parent="1">
          <mxGeometry x="70" y="160" width="240" height="390" as="geometry" />
        </mxCell>
        <mxCell id="AN7pkXZCnYP8iV07z2iw-1" value="&lt;span style=&quot;font-size: 20px;&quot;&gt;&lt;b&gt;BYPASS STRATEGY LEFT&lt;/b&gt;&lt;/span&gt;" style="text;html=1;align=center;verticalAlign=middle;whiteSpace=wrap;rounded=0;" vertex="1" parent="1">
          <mxGeometry x="300" y="20" width="500" height="30" as="geometry" />
        </mxCell>
        <mxCell id="AN7pkXZCnYP8iV07z2iw-2" value="Scenario 1:&amp;nbsp;" style="text;html=1;align=center;verticalAlign=middle;whiteSpace=wrap;rounded=0;" vertex="1" parent="1">
          <mxGeometry x="40" y="130" width="120" height="30" as="geometry" />
        </mxCell>
        <mxCell id="AN7pkXZCnYP8iV07z2iw-20" value="&lt;font style=&quot;font-size: 9px;&quot;&gt;Obstacle&lt;/font&gt;" style="shape=cylinder3;whiteSpace=wrap;html=1;boundedLbl=1;backgroundOutline=1;size=12.304347826087024;" vertex="1" parent="1">
          <mxGeometry x="110" y="250" width="60" height="70" as="geometry" />
        </mxCell>
        <mxCell id="AN7pkXZCnYP8iV07z2iw-6" value="" style="ellipse;whiteSpace=wrap;html=1;aspect=fixed;rotation=-30;" vertex="1" parent="1">
          <mxGeometry x="146.04" y="436" width="33" height="33" as="geometry" />
        </mxCell>
        <mxCell id="AN7pkXZCnYP8iV07z2iw-5" value="" style="ellipse;whiteSpace=wrap;html=1;aspect=fixed;rotation=-30;" vertex="1" parent="1">
          <mxGeometry x="199.04" y="436" width="33" height="33" as="geometry" />
        </mxCell>
        <mxCell id="AN7pkXZCnYP8iV07z2iw-4" value="" style="ellipse;whiteSpace=wrap;html=1;aspect=fixed;rotation=-30;" vertex="1" parent="1">
          <mxGeometry x="199.04" y="370.29" width="33" height="33" as="geometry" />
        </mxCell>
        <mxCell id="AN7pkXZCnYP8iV07z2iw-7" value="" style="ellipse;whiteSpace=wrap;html=1;aspect=fixed;rotation=-30;" vertex="1" parent="1">
          <mxGeometry x="146.04" y="370.29" width="33" height="33" as="geometry" />
        </mxCell>
        <mxCell id="AN7pkXZCnYP8iV07z2iw-3" value="Arduino Uno" style="rounded=1;whiteSpace=wrap;html=1;rotation=-90;" vertex="1" parent="1">
          <mxGeometry x="129.04" y="390" width="120" height="60" as="geometry" />
        </mxCell>
        <mxCell id="AN7pkXZCnYP8iV07z2iw-32" value="" style="group" vertex="1" connectable="0" parent="1">
          <mxGeometry x="126.63639558489285" y="340.3954114546695" width="44.76720883021429" height="39.78917709066104" as="geometry" />
        </mxCell>
        <mxCell id="AN7pkXZCnYP8iV07z2iw-23" value="" style="group;rotation=15;" vertex="1" connectable="0" parent="AN7pkXZCnYP8iV07z2iw-32">
          <mxGeometry x="3.3636044151071474" y="4.394588545330521" width="38.03999999999999" height="31" as="geometry" />
        </mxCell>
        <mxCell id="AN7pkXZCnYP8iV07z2iw-15" value="" style="endArrow=classic;html=1;rounded=0;strokeWidth=0.5;exitX=0.5;exitY=0;exitDx=0;exitDy=0;" edge="1" parent="AN7pkXZCnYP8iV07z2iw-23" source="AN7pkXZCnYP8iV07z2iw-11">
          <mxGeometry width="50" height="50" relative="1" as="geometry">
            <mxPoint x="-9" y="13" as="sourcePoint" />
            <mxPoint x="1" y="11" as="targetPoint" />
          </mxGeometry>
        </mxCell>
        <mxCell id="AN7pkXZCnYP8iV07z2iw-11" value="&lt;p style=&quot;line-height: 40%;&quot;&gt;&lt;font style=&quot;font-size: 6px;&quot;&gt;Obstacle Detector&lt;/font&gt;&lt;/p&gt;" style="rounded=0;whiteSpace=wrap;html=1;rotation=-75;" vertex="1" parent="AN7pkXZCnYP8iV07z2iw-23">
          <mxGeometry x="12" y="8" width="31" height="20" as="geometry" />
        </mxCell>
        <mxCell id="AN7pkXZCnYP8iV07z2iw-29" value="" style="endArrow=classic;html=1;rounded=0;strokeWidth=0.5;exitX=1;exitY=0;exitDx=0;exitDy=0;" edge="1" parent="AN7pkXZCnYP8iV07z2iw-23" source="AN7pkXZCnYP8iV07z2iw-11">
          <mxGeometry width="50" height="50" relative="1" as="geometry">
            <mxPoint x="17" y="4" as="sourcePoint" />
            <mxPoint x="20" y="-14.79000000000002" as="targetPoint" />
          </mxGeometry>
        </mxCell>
        <mxCell id="AN7pkXZCnYP8iV07z2iw-31" value="" style="endArrow=classic;html=1;rounded=0;strokeWidth=0.5;exitX=0;exitY=0;exitDx=0;exitDy=0;" edge="1" parent="AN7pkXZCnYP8iV07z2iw-32" source="AN7pkXZCnYP8iV07z2iw-11">
          <mxGeometry width="50" height="50" relative="1" as="geometry">
            <mxPoint x="35.36360441510715" y="14.394588545330521" as="sourcePoint" />
            <mxPoint x="3.3636044151071474" y="39.6045885453305" as="targetPoint" />
          </mxGeometry>
        </mxCell>
        <mxCell id="AN7pkXZCnYP8iV07z2iw-34" value="" style="group;rotation=75;" vertex="1" connectable="0" parent="1">
          <mxGeometry x="169.99639558489287" y="329.9954114546695" width="44.76720883021429" height="39.78917709066104" as="geometry" />
        </mxCell>
        <mxCell id="AN7pkXZCnYP8iV07z2iw-35" value="" style="group;rotation=90;" vertex="1" connectable="0" parent="AN7pkXZCnYP8iV07z2iw-34">
          <mxGeometry x="3" y="4" width="38.03999999999999" height="31" as="geometry" />
        </mxCell>
        <mxCell id="AN7pkXZCnYP8iV07z2iw-36" value="" style="endArrow=classic;html=1;rounded=0;strokeWidth=0.5;exitX=0.5;exitY=0;exitDx=0;exitDy=0;" edge="1" parent="AN7pkXZCnYP8iV07z2iw-35" source="AN7pkXZCnYP8iV07z2iw-37">
          <mxGeometry width="50" height="50" relative="1" as="geometry">
            <mxPoint x="15" y="-13" as="sourcePoint" />
            <mxPoint x="19" y="-4" as="targetPoint" />
          </mxGeometry>
        </mxCell>
        <mxCell id="AN7pkXZCnYP8iV07z2iw-37" value="&lt;p style=&quot;line-height: 40%;&quot;&gt;&lt;font style=&quot;font-size: 6px;&quot;&gt;Obstacle Detector&lt;/font&gt;&lt;/p&gt;" style="rounded=0;whiteSpace=wrap;html=1;rotation=0;" vertex="1" parent="AN7pkXZCnYP8iV07z2iw-35">
          <mxGeometry x="3" y="14" width="31" height="20" as="geometry" />
        </mxCell>
        <mxCell id="AN7pkXZCnYP8iV07z2iw-38" value="" style="endArrow=classic;html=1;rounded=0;strokeWidth=0.5;exitX=1;exitY=0;exitDx=0;exitDy=0;" edge="1" parent="AN7pkXZCnYP8iV07z2iw-35" source="AN7pkXZCnYP8iV07z2iw-37">
          <mxGeometry width="50" height="50" relative="1" as="geometry">
            <mxPoint x="30" y="10" as="sourcePoint" />
            <mxPoint x="47.003604415107134" y="-3.9954114546695223" as="targetPoint" />
          </mxGeometry>
        </mxCell>
        <mxCell id="AN7pkXZCnYP8iV07z2iw-39" value="" style="endArrow=classic;html=1;rounded=0;strokeWidth=0.5;exitX=0;exitY=0;exitDx=0;exitDy=0;" edge="1" parent="AN7pkXZCnYP8iV07z2iw-34" source="AN7pkXZCnYP8iV07z2iw-37">
          <mxGeometry width="50" height="50" relative="1" as="geometry">
            <mxPoint x="31" y="31" as="sourcePoint" />
            <mxPoint x="-1" y="7" as="targetPoint" />
          </mxGeometry>
        </mxCell>
        <mxCell id="AN7pkXZCnYP8iV07z2iw-41" value="" style="group;rotation=-225;" vertex="1" connectable="0" parent="1">
          <mxGeometry x="209.99639558489287" y="339.9954114546695" width="44.76720883021429" height="39.78917709066104" as="geometry" />
        </mxCell>
        <mxCell id="AN7pkXZCnYP8iV07z2iw-42" value="" style="group;rotation=-210;" vertex="1" connectable="0" parent="AN7pkXZCnYP8iV07z2iw-41">
          <mxGeometry x="4" y="4" width="38.03999999999999" height="31" as="geometry" />
        </mxCell>
        <mxCell id="AN7pkXZCnYP8iV07z2iw-43" value="" style="endArrow=classic;html=1;rounded=0;strokeWidth=0.5;exitX=0.5;exitY=0;exitDx=0;exitDy=0;" edge="1" parent="AN7pkXZCnYP8iV07z2iw-42" source="AN7pkXZCnYP8iV07z2iw-44">
          <mxGeometry width="50" height="50" relative="1" as="geometry">
            <mxPoint x="42" y="-2" as="sourcePoint" />
            <mxPoint x="36" y="6" as="targetPoint" />
          </mxGeometry>
        </mxCell>
        <mxCell id="AN7pkXZCnYP8iV07z2iw-44" value="&lt;p style=&quot;line-height: 40%;&quot;&gt;&lt;font style=&quot;font-size: 6px;&quot;&gt;Obstacle Detector&lt;/font&gt;&lt;/p&gt;" style="rounded=0;whiteSpace=wrap;html=1;rotation=-300;" vertex="1" parent="AN7pkXZCnYP8iV07z2iw-42">
          <mxGeometry x="-4" y="9" width="31" height="20" as="geometry" />
        </mxCell>
        <mxCell id="AN7pkXZCnYP8iV07z2iw-45" value="" style="endArrow=classic;html=1;rounded=0;strokeWidth=0.5;exitX=1;exitY=0;exitDx=0;exitDy=0;" edge="1" parent="AN7pkXZCnYP8iV07z2iw-42" source="AN7pkXZCnYP8iV07z2iw-44">
          <mxGeometry width="50" height="50" relative="1" as="geometry">
            <mxPoint x="29" y="22" as="sourcePoint" />
            <mxPoint x="41" y="35" as="targetPoint" />
          </mxGeometry>
        </mxCell>
        <mxCell id="AN7pkXZCnYP8iV07z2iw-46" value="" style="endArrow=classic;html=1;rounded=0;strokeWidth=0.5;exitX=0;exitY=0;exitDx=0;exitDy=0;" edge="1" parent="AN7pkXZCnYP8iV07z2iw-41" source="AN7pkXZCnYP8iV07z2iw-44">
          <mxGeometry width="50" height="50" relative="1" as="geometry">
            <mxPoint x="17" y="33" as="sourcePoint" />
            <mxPoint x="22" y="-7" as="targetPoint" />
          </mxGeometry>
        </mxCell>
        <mxCell id="AN7pkXZCnYP8iV07z2iw-47" value="" style="group;rotation=-105;" vertex="1" connectable="0" parent="1">
          <mxGeometry x="169.99639558489287" y="469.9954114546695" width="44.76720883021429" height="39.78917709066104" as="geometry" />
        </mxCell>
        <mxCell id="AN7pkXZCnYP8iV07z2iw-48" value="" style="group;rotation=-90;" vertex="1" connectable="0" parent="AN7pkXZCnYP8iV07z2iw-47">
          <mxGeometry x="3" y="4" width="38.03999999999999" height="31" as="geometry" />
        </mxCell>
        <mxCell id="AN7pkXZCnYP8iV07z2iw-49" value="" style="endArrow=classic;html=1;rounded=0;strokeWidth=0.5;exitX=0.5;exitY=0;exitDx=0;exitDy=0;" edge="1" parent="AN7pkXZCnYP8iV07z2iw-48" source="AN7pkXZCnYP8iV07z2iw-50">
          <mxGeometry width="50" height="50" relative="1" as="geometry">
            <mxPoint x="24" y="43" as="sourcePoint" />
            <mxPoint x="19" y="34" as="targetPoint" />
          </mxGeometry>
        </mxCell>
        <mxCell id="AN7pkXZCnYP8iV07z2iw-50" value="&lt;p style=&quot;line-height: 40%;&quot;&gt;&lt;font style=&quot;font-size: 6px;&quot;&gt;Obstacle Detector&lt;/font&gt;&lt;/p&gt;" style="rounded=0;whiteSpace=wrap;html=1;rotation=-180;" vertex="1" parent="AN7pkXZCnYP8iV07z2iw-48">
          <mxGeometry x="4" y="-3" width="31" height="20" as="geometry" />
        </mxCell>
        <mxCell id="AN7pkXZCnYP8iV07z2iw-51" value="" style="endArrow=classic;html=1;rounded=0;strokeWidth=0.5;exitX=1;exitY=0;exitDx=0;exitDy=0;" edge="1" parent="AN7pkXZCnYP8iV07z2iw-48" source="AN7pkXZCnYP8iV07z2iw-50">
          <mxGeometry width="50" height="50" relative="1" as="geometry">
            <mxPoint x="8" y="20" as="sourcePoint" />
            <mxPoint x="-10" y="22" as="targetPoint" />
          </mxGeometry>
        </mxCell>
        <mxCell id="AN7pkXZCnYP8iV07z2iw-52" value="" style="endArrow=classic;html=1;rounded=0;strokeWidth=0.5;exitX=0;exitY=0;exitDx=0;exitDy=0;" edge="1" parent="AN7pkXZCnYP8iV07z2iw-47" source="AN7pkXZCnYP8iV07z2iw-50">
          <mxGeometry width="50" height="50" relative="1" as="geometry">
            <mxPoint x="14" y="9" as="sourcePoint" />
            <mxPoint x="46" y="33" as="targetPoint" />
          </mxGeometry>
        </mxCell>
        <mxCell id="AN7pkXZCnYP8iV07z2iw-53" value="" style="endArrow=classic;html=1;rounded=0;fillColor=#f8cecc;strokeColor=#b85450;exitX=1;exitY=0;exitDx=0;exitDy=0;" edge="1" parent="1" source="AN7pkXZCnYP8iV07z2iw-11" target="AN7pkXZCnYP8iV07z2iw-20">
          <mxGeometry width="50" height="50" relative="1" as="geometry">
            <mxPoint x="160" y="340.4" as="sourcePoint" />
            <mxPoint x="210" y="290.4" as="targetPoint" />
          </mxGeometry>
        </mxCell>
        <mxCell id="AN7pkXZCnYP8iV07z2iw-55" value="&lt;font style=&quot;font-size: 9px;&quot;&gt;Obstacle&lt;/font&gt;" style="shape=cylinder3;whiteSpace=wrap;html=1;boundedLbl=1;backgroundOutline=1;size=12.304347826087024;" vertex="1" parent="1">
          <mxGeometry x="340" y="250" width="60" height="70" as="geometry" />
        </mxCell>
        <mxCell id="AN7pkXZCnYP8iV07z2iw-86" value="" style="group;rotation=30;" vertex="1" connectable="0" parent="1">
          <mxGeometry x="371.9963955848928" y="333.12000000000006" width="135.63880135374598" height="193.54000000000002" as="geometry" />
        </mxCell>
        <mxCell id="AN7pkXZCnYP8iV07z2iw-56" value="" style="ellipse;whiteSpace=wrap;html=1;aspect=fixed;rotation=0;" vertex="1" parent="AN7pkXZCnYP8iV07z2iw-86">
          <mxGeometry x="7" y="93" width="33" height="33" as="geometry" />
        </mxCell>
        <mxCell id="AN7pkXZCnYP8iV07z2iw-57" value="" style="ellipse;whiteSpace=wrap;html=1;aspect=fixed;rotation=0;" vertex="1" parent="AN7pkXZCnYP8iV07z2iw-86">
          <mxGeometry x="53" y="119" width="33" height="33" as="geometry" />
        </mxCell>
        <mxCell id="AN7pkXZCnYP8iV07z2iw-58" value="" style="ellipse;whiteSpace=wrap;html=1;aspect=fixed;rotation=0;" vertex="1" parent="AN7pkXZCnYP8iV07z2iw-86">
          <mxGeometry x="86" y="61" width="33" height="33" as="geometry" />
        </mxCell>
        <mxCell id="AN7pkXZCnYP8iV07z2iw-59" value="" style="ellipse;whiteSpace=wrap;html=1;aspect=fixed;rotation=0;" vertex="1" parent="AN7pkXZCnYP8iV07z2iw-86">
          <mxGeometry x="40" y="36" width="33" height="33" as="geometry" />
        </mxCell>
        <mxCell id="AN7pkXZCnYP8iV07z2iw-60" value="Arduino Uno" style="rounded=1;whiteSpace=wrap;html=1;rotation=-60;" vertex="1" parent="AN7pkXZCnYP8iV07z2iw-86">
          <mxGeometry x="3" y="64" width="120" height="60" as="geometry" />
        </mxCell>
        <mxCell id="AN7pkXZCnYP8iV07z2iw-61" value="" style="group;rotation=30;" vertex="1" connectable="0" parent="AN7pkXZCnYP8iV07z2iw-86">
          <mxGeometry x="36" y="2" width="44.76720883021429" height="39.78917709066104" as="geometry" />
        </mxCell>
        <mxCell id="AN7pkXZCnYP8iV07z2iw-62" value="" style="group;rotation=45;" vertex="1" connectable="0" parent="AN7pkXZCnYP8iV07z2iw-61">
          <mxGeometry x="3" y="4" width="38.03999999999999" height="31" as="geometry" />
        </mxCell>
        <mxCell id="AN7pkXZCnYP8iV07z2iw-63" value="" style="endArrow=classic;html=1;rounded=0;strokeWidth=0.5;exitX=0.5;exitY=0;exitDx=0;exitDy=0;" edge="1" parent="AN7pkXZCnYP8iV07z2iw-62" source="AN7pkXZCnYP8iV07z2iw-64">
          <mxGeometry width="50" height="50" relative="1" as="geometry">
            <mxPoint x="-4" as="sourcePoint" />
            <mxPoint x="6" y="3" as="targetPoint" />
          </mxGeometry>
        </mxCell>
        <mxCell id="AN7pkXZCnYP8iV07z2iw-64" value="&lt;p style=&quot;line-height: 40%;&quot;&gt;&lt;font style=&quot;font-size: 6px;&quot;&gt;Obstacle Detector&lt;/font&gt;&lt;/p&gt;" style="rounded=0;whiteSpace=wrap;html=1;rotation=-45;" vertex="1" parent="AN7pkXZCnYP8iV07z2iw-62">
          <mxGeometry x="10" y="12" width="31" height="20" as="geometry" />
        </mxCell>
        <mxCell id="AN7pkXZCnYP8iV07z2iw-65" value="" style="endArrow=classic;html=1;rounded=0;strokeWidth=0.5;exitX=1;exitY=0;exitDx=0;exitDy=0;" edge="1" parent="AN7pkXZCnYP8iV07z2iw-62" source="AN7pkXZCnYP8iV07z2iw-64">
          <mxGeometry width="50" height="50" relative="1" as="geometry">
            <mxPoint x="23" y="5" as="sourcePoint" />
            <mxPoint x="35" y="-10" as="targetPoint" />
          </mxGeometry>
        </mxCell>
        <mxCell id="AN7pkXZCnYP8iV07z2iw-66" value="" style="endArrow=classic;html=1;rounded=0;strokeWidth=0.5;exitX=0;exitY=0;exitDx=0;exitDy=0;" edge="1" parent="AN7pkXZCnYP8iV07z2iw-61" source="AN7pkXZCnYP8iV07z2iw-64">
          <mxGeometry width="50" height="50" relative="1" as="geometry">
            <mxPoint x="36" y="22" as="sourcePoint" />
            <mxPoint x="-4" y="27" as="targetPoint" />
          </mxGeometry>
        </mxCell>
        <mxCell id="AN7pkXZCnYP8iV07z2iw-67" value="" style="group;rotation=105;" vertex="1" connectable="0" parent="AN7pkXZCnYP8iV07z2iw-86">
          <mxGeometry x="79" y="16" width="44.76720883021429" height="39.78917709066104" as="geometry" />
        </mxCell>
        <mxCell id="AN7pkXZCnYP8iV07z2iw-68" value="" style="group;rotation=120;" vertex="1" connectable="0" parent="AN7pkXZCnYP8iV07z2iw-67">
          <mxGeometry x="3" y="4" width="38.03999999999999" height="31" as="geometry" />
        </mxCell>
        <mxCell id="AN7pkXZCnYP8iV07z2iw-69" value="" style="endArrow=classic;html=1;rounded=0;strokeWidth=0.5;exitX=0.5;exitY=0;exitDx=0;exitDy=0;" edge="1" parent="AN7pkXZCnYP8iV07z2iw-68" source="AN7pkXZCnYP8iV07z2iw-70">
          <mxGeometry width="50" height="50" relative="1" as="geometry">
            <mxPoint x="29" y="-11" as="sourcePoint" />
            <mxPoint x="29" y="-2" as="targetPoint" />
          </mxGeometry>
        </mxCell>
        <mxCell id="AN7pkXZCnYP8iV07z2iw-70" value="&lt;p style=&quot;line-height: 40%;&quot;&gt;&lt;font style=&quot;font-size: 6px;&quot;&gt;Obstacle Detector&lt;/font&gt;&lt;/p&gt;" style="rounded=0;whiteSpace=wrap;html=1;rotation=30;" vertex="1" parent="AN7pkXZCnYP8iV07z2iw-68">
          <mxGeometry x="-1" y="13" width="31" height="20" as="geometry" />
        </mxCell>
        <mxCell id="AN7pkXZCnYP8iV07z2iw-71" value="" style="endArrow=classic;html=1;rounded=0;strokeWidth=0.5;exitX=1;exitY=0;exitDx=0;exitDy=0;" edge="1" parent="AN7pkXZCnYP8iV07z2iw-68" source="AN7pkXZCnYP8iV07z2iw-70">
          <mxGeometry width="50" height="50" relative="1" as="geometry">
            <mxPoint x="31" y="16" as="sourcePoint" />
            <mxPoint x="53" y="13" as="targetPoint" />
          </mxGeometry>
        </mxCell>
        <mxCell id="AN7pkXZCnYP8iV07z2iw-72" value="" style="endArrow=classic;html=1;rounded=0;strokeWidth=0.5;exitX=0;exitY=0;exitDx=0;exitDy=0;" edge="1" parent="AN7pkXZCnYP8iV07z2iw-67" source="AN7pkXZCnYP8iV07z2iw-70">
          <mxGeometry width="50" height="50" relative="1" as="geometry">
            <mxPoint x="24" y="34" as="sourcePoint" />
            <mxPoint x="10" y="-3" as="targetPoint" />
          </mxGeometry>
        </mxCell>
        <mxCell id="AN7pkXZCnYP8iV07z2iw-73" value="" style="group;rotation=-195;" vertex="1" connectable="0" parent="AN7pkXZCnYP8iV07z2iw-86">
          <mxGeometry x="108" y="43" width="44.76720883021429" height="39.78917709066104" as="geometry" />
        </mxCell>
        <mxCell id="AN7pkXZCnYP8iV07z2iw-74" value="" style="group;rotation=-180;" vertex="1" connectable="0" parent="AN7pkXZCnYP8iV07z2iw-73">
          <mxGeometry x="4" y="4" width="38.03999999999999" height="31" as="geometry" />
        </mxCell>
        <mxCell id="AN7pkXZCnYP8iV07z2iw-75" value="" style="endArrow=classic;html=1;rounded=0;strokeWidth=0.5;exitX=0.5;exitY=0;exitDx=0;exitDy=0;" edge="1" parent="AN7pkXZCnYP8iV07z2iw-74" source="AN7pkXZCnYP8iV07z2iw-76">
          <mxGeometry width="50" height="50" relative="1" as="geometry">
            <mxPoint x="48" y="11" as="sourcePoint" />
            <mxPoint x="38" y="16" as="targetPoint" />
          </mxGeometry>
        </mxCell>
        <mxCell id="AN7pkXZCnYP8iV07z2iw-76" value="&lt;p style=&quot;line-height: 40%;&quot;&gt;&lt;font style=&quot;font-size: 6px;&quot;&gt;Obstacle Detector&lt;/font&gt;&lt;/p&gt;" style="rounded=0;whiteSpace=wrap;html=1;rotation=-270;" vertex="1" parent="AN7pkXZCnYP8iV07z2iw-74">
          <mxGeometry x="-4" y="5" width="31" height="20" as="geometry" />
        </mxCell>
        <mxCell id="AN7pkXZCnYP8iV07z2iw-77" value="" style="endArrow=classic;html=1;rounded=0;strokeWidth=0.5;exitX=1;exitY=0;exitDx=0;exitDy=0;" edge="1" parent="AN7pkXZCnYP8iV07z2iw-74" source="AN7pkXZCnYP8iV07z2iw-76">
          <mxGeometry width="50" height="50" relative="1" as="geometry">
            <mxPoint x="24" y="27" as="sourcePoint" />
            <mxPoint x="28" y="43" as="targetPoint" />
          </mxGeometry>
        </mxCell>
        <mxCell id="AN7pkXZCnYP8iV07z2iw-78" value="" style="endArrow=classic;html=1;rounded=0;strokeWidth=0.5;exitX=0;exitY=0;exitDx=0;exitDy=0;" edge="1" parent="AN7pkXZCnYP8iV07z2iw-73" source="AN7pkXZCnYP8iV07z2iw-76">
          <mxGeometry width="50" height="50" relative="1" as="geometry">
            <mxPoint x="11" y="28" as="sourcePoint" />
            <mxPoint x="35" y="-3" as="targetPoint" />
          </mxGeometry>
        </mxCell>
        <mxCell id="AN7pkXZCnYP8iV07z2iw-79" value="" style="group;rotation=-75;" vertex="1" connectable="0" parent="AN7pkXZCnYP8iV07z2iw-86">
          <mxGeometry x="9" y="135" width="44.76720883021429" height="39.78917709066104" as="geometry" />
        </mxCell>
        <mxCell id="AN7pkXZCnYP8iV07z2iw-80" value="" style="group;rotation=-60;" vertex="1" connectable="0" parent="AN7pkXZCnYP8iV07z2iw-79">
          <mxGeometry x="3" y="4" width="38.03999999999999" height="31" as="geometry" />
        </mxCell>
        <mxCell id="AN7pkXZCnYP8iV07z2iw-81" value="" style="endArrow=classic;html=1;rounded=0;strokeWidth=0.5;exitX=0.5;exitY=0;exitDx=0;exitDy=0;" edge="1" parent="AN7pkXZCnYP8iV07z2iw-80" source="AN7pkXZCnYP8iV07z2iw-82">
          <mxGeometry width="50" height="50" relative="1" as="geometry">
            <mxPoint x="10" y="42" as="sourcePoint" />
            <mxPoint x="9" y="32" as="targetPoint" />
          </mxGeometry>
        </mxCell>
        <mxCell id="AN7pkXZCnYP8iV07z2iw-82" value="&lt;p style=&quot;line-height: 40%;&quot;&gt;&lt;font style=&quot;font-size: 6px;&quot;&gt;Obstacle Detector&lt;/font&gt;&lt;/p&gt;" style="rounded=0;whiteSpace=wrap;html=1;rotation=-150;" vertex="1" parent="AN7pkXZCnYP8iV07z2iw-80">
          <mxGeometry x="8" y="-2" width="31" height="20" as="geometry" />
        </mxCell>
        <mxCell id="AN7pkXZCnYP8iV07z2iw-83" value="" style="endArrow=classic;html=1;rounded=0;strokeWidth=0.5;exitX=1;exitY=0;exitDx=0;exitDy=0;" edge="1" parent="AN7pkXZCnYP8iV07z2iw-80" source="AN7pkXZCnYP8iV07z2iw-82">
          <mxGeometry width="50" height="50" relative="1" as="geometry">
            <mxPoint x="7" y="14" as="sourcePoint" />
            <mxPoint x="-10" y="6" as="targetPoint" />
          </mxGeometry>
        </mxCell>
        <mxCell id="AN7pkXZCnYP8iV07z2iw-84" value="" style="endArrow=classic;html=1;rounded=0;strokeWidth=0.5;exitX=0;exitY=0;exitDx=0;exitDy=0;" edge="1" parent="AN7pkXZCnYP8iV07z2iw-79" source="AN7pkXZCnYP8iV07z2iw-82">
          <mxGeometry width="50" height="50" relative="1" as="geometry">
            <mxPoint x="21" y="6" as="sourcePoint" />
            <mxPoint x="35" y="43" as="targetPoint" />
          </mxGeometry>
        </mxCell>
        <mxCell id="AN7pkXZCnYP8iV07z2iw-87" value="" style="curved=1;endArrow=classic;html=1;rounded=0;" edge="1" parent="1">
          <mxGeometry width="50" height="50" relative="1" as="geometry">
            <mxPoint x="340" y="470" as="sourcePoint" />
            <mxPoint x="430" y="300" as="targetPoint" />
            <Array as="points">
              <mxPoint x="340" y="380" />
              <mxPoint x="380" y="330" />
            </Array>
          </mxGeometry>
        </mxCell>
        <mxCell id="AN7pkXZCnYP8iV07z2iw-88" value="" style="endArrow=classic;html=1;rounded=0;" edge="1" parent="1">
          <mxGeometry width="50" height="50" relative="1" as="geometry">
            <mxPoint x="430" y="280" as="sourcePoint" />
            <mxPoint x="430" y="230" as="targetPoint" />
          </mxGeometry>
        </mxCell>
        <mxCell id="AN7pkXZCnYP8iV07z2iw-89" value="" style="curved=1;endArrow=classic;html=1;rounded=0;" edge="1" parent="1">
          <mxGeometry width="50" height="50" relative="1" as="geometry">
            <mxPoint x="430" y="220" as="sourcePoint" />
            <mxPoint x="360" y="140" as="targetPoint" />
            <Array as="points">
              <mxPoint x="440" y="220" />
              <mxPoint x="350" y="210" />
              <mxPoint x="360" y="170" />
            </Array>
          </mxGeometry>
        </mxCell>
        <mxCell id="AN7pkXZCnYP8iV07z2iw-90" value="&lt;font style=&quot;font-size: 9px;&quot;&gt;Obstacle&lt;/font&gt;" style="shape=cylinder3;whiteSpace=wrap;html=1;boundedLbl=1;backgroundOutline=1;size=12.304347826087024;" vertex="1" parent="1">
          <mxGeometry x="580" y="251.88" width="60" height="70" as="geometry" />
        </mxCell>
        <mxCell id="AN7pkXZCnYP8iV07z2iw-117" value="" style="curved=1;endArrow=classic;html=1;rounded=0;" edge="1" parent="1">
          <mxGeometry width="50" height="50" relative="1" as="geometry">
            <mxPoint x="580" y="471.88" as="sourcePoint" />
            <mxPoint x="670" y="301.88" as="targetPoint" />
            <Array as="points">
              <mxPoint x="580" y="381.88" />
              <mxPoint x="620" y="331.88" />
            </Array>
          </mxGeometry>
        </mxCell>
        <mxCell id="AN7pkXZCnYP8iV07z2iw-118" value="" style="endArrow=classic;html=1;rounded=0;" edge="1" parent="1">
          <mxGeometry width="50" height="50" relative="1" as="geometry">
            <mxPoint x="670" y="281.88" as="sourcePoint" />
            <mxPoint x="670" y="231.88" as="targetPoint" />
          </mxGeometry>
        </mxCell>
        <mxCell id="AN7pkXZCnYP8iV07z2iw-119" value="" style="curved=1;endArrow=classic;html=1;rounded=0;" edge="1" parent="1">
          <mxGeometry width="50" height="50" relative="1" as="geometry">
            <mxPoint x="670" y="221.88" as="sourcePoint" />
            <mxPoint x="600" y="141.88" as="targetPoint" />
            <Array as="points">
              <mxPoint x="680" y="221.88" />
              <mxPoint x="590" y="211.88" />
              <mxPoint x="600" y="171.88" />
            </Array>
          </mxGeometry>
        </mxCell>
        <mxCell id="AN7pkXZCnYP8iV07z2iw-120" value="" style="group" vertex="1" connectable="0" parent="1">
          <mxGeometry x="618.3699999999999" y="328.4735672596819" width="136.62639558489286" height="188.19102128564873" as="geometry" />
        </mxCell>
        <mxCell id="AN7pkXZCnYP8iV07z2iw-91" value="" style="ellipse;whiteSpace=wrap;html=1;aspect=fixed;rotation=0;" vertex="1" parent="AN7pkXZCnYP8iV07z2iw-120">
          <mxGeometry x="0.6263955848928617" y="99.52643274031817" width="33" height="33" as="geometry" />
        </mxCell>
        <mxCell id="AN7pkXZCnYP8iV07z2iw-92" value="" style="ellipse;whiteSpace=wrap;html=1;aspect=fixed;rotation=0;" vertex="1" parent="AN7pkXZCnYP8iV07z2iw-120">
          <mxGeometry x="46.62639558489286" y="125.52643274031817" width="33" height="33" as="geometry" />
        </mxCell>
        <mxCell id="AN7pkXZCnYP8iV07z2iw-93" value="" style="ellipse;whiteSpace=wrap;html=1;aspect=fixed;rotation=0;" vertex="1" parent="AN7pkXZCnYP8iV07z2iw-120">
          <mxGeometry x="79.62639558489286" y="67.52643274031817" width="33" height="33" as="geometry" />
        </mxCell>
        <mxCell id="AN7pkXZCnYP8iV07z2iw-94" value="" style="ellipse;whiteSpace=wrap;html=1;aspect=fixed;rotation=0;" vertex="1" parent="AN7pkXZCnYP8iV07z2iw-120">
          <mxGeometry x="33.62639558489286" y="42.52643274031817" width="33" height="33" as="geometry" />
        </mxCell>
        <mxCell id="AN7pkXZCnYP8iV07z2iw-95" value="Arduino Uno" style="rounded=1;whiteSpace=wrap;html=1;rotation=-60;" vertex="1" parent="AN7pkXZCnYP8iV07z2iw-120">
          <mxGeometry x="-3.3736044151071383" y="70.52643274031817" width="120" height="60" as="geometry" />
        </mxCell>
        <mxCell id="AN7pkXZCnYP8iV07z2iw-96" value="" style="group;rotation=30;" vertex="1" connectable="0" parent="AN7pkXZCnYP8iV07z2iw-120">
          <mxGeometry x="29.62639558489286" y="8.526432740318171" width="44.76720883021429" height="39.78917709066104" as="geometry" />
        </mxCell>
        <mxCell id="AN7pkXZCnYP8iV07z2iw-97" value="" style="group;rotation=45;" vertex="1" connectable="0" parent="AN7pkXZCnYP8iV07z2iw-96">
          <mxGeometry x="3" y="4" width="38.03999999999999" height="31" as="geometry" />
        </mxCell>
        <mxCell id="AN7pkXZCnYP8iV07z2iw-98" value="" style="endArrow=classic;html=1;rounded=0;strokeWidth=0.5;exitX=0.5;exitY=0;exitDx=0;exitDy=0;" edge="1" parent="AN7pkXZCnYP8iV07z2iw-97" source="AN7pkXZCnYP8iV07z2iw-99">
          <mxGeometry width="50" height="50" relative="1" as="geometry">
            <mxPoint x="-4" as="sourcePoint" />
            <mxPoint x="6" y="3" as="targetPoint" />
          </mxGeometry>
        </mxCell>
        <mxCell id="AN7pkXZCnYP8iV07z2iw-99" value="&lt;p style=&quot;line-height: 40%;&quot;&gt;&lt;font style=&quot;font-size: 6px;&quot;&gt;Obstacle Detector&lt;/font&gt;&lt;/p&gt;" style="rounded=0;whiteSpace=wrap;html=1;rotation=-45;" vertex="1" parent="AN7pkXZCnYP8iV07z2iw-97">
          <mxGeometry x="10" y="12" width="31" height="20" as="geometry" />
        </mxCell>
        <mxCell id="AN7pkXZCnYP8iV07z2iw-100" value="" style="endArrow=classic;html=1;rounded=0;strokeWidth=0.5;exitX=1;exitY=0;exitDx=0;exitDy=0;" edge="1" parent="AN7pkXZCnYP8iV07z2iw-97" source="AN7pkXZCnYP8iV07z2iw-99">
          <mxGeometry width="50" height="50" relative="1" as="geometry">
            <mxPoint x="23" y="5" as="sourcePoint" />
            <mxPoint x="35" y="-10" as="targetPoint" />
          </mxGeometry>
        </mxCell>
        <mxCell id="AN7pkXZCnYP8iV07z2iw-101" value="" style="endArrow=classic;html=1;rounded=0;strokeWidth=0.5;exitX=0;exitY=0;exitDx=0;exitDy=0;" edge="1" parent="AN7pkXZCnYP8iV07z2iw-96" source="AN7pkXZCnYP8iV07z2iw-99">
          <mxGeometry width="50" height="50" relative="1" as="geometry">
            <mxPoint x="36" y="22" as="sourcePoint" />
            <mxPoint x="-4" y="27" as="targetPoint" />
          </mxGeometry>
        </mxCell>
        <mxCell id="AN7pkXZCnYP8iV07z2iw-102" value="" style="group;rotation=105;" vertex="1" connectable="0" parent="AN7pkXZCnYP8iV07z2iw-120">
          <mxGeometry x="72.62639558489286" y="22.52643274031817" width="44.76720883021429" height="39.78917709066104" as="geometry" />
        </mxCell>
        <mxCell id="AN7pkXZCnYP8iV07z2iw-103" value="" style="group;rotation=120;" vertex="1" connectable="0" parent="AN7pkXZCnYP8iV07z2iw-102">
          <mxGeometry x="3" y="4" width="38.03999999999999" height="31" as="geometry" />
        </mxCell>
        <mxCell id="AN7pkXZCnYP8iV07z2iw-104" value="" style="endArrow=classic;html=1;rounded=0;strokeWidth=0.5;exitX=0.5;exitY=0;exitDx=0;exitDy=0;" edge="1" parent="AN7pkXZCnYP8iV07z2iw-103" source="AN7pkXZCnYP8iV07z2iw-105">
          <mxGeometry width="50" height="50" relative="1" as="geometry">
            <mxPoint x="29" y="-11" as="sourcePoint" />
            <mxPoint x="29" y="-2" as="targetPoint" />
          </mxGeometry>
        </mxCell>
        <mxCell id="AN7pkXZCnYP8iV07z2iw-105" value="&lt;p style=&quot;line-height: 40%;&quot;&gt;&lt;font style=&quot;font-size: 6px;&quot;&gt;Obstacle Detector&lt;/font&gt;&lt;/p&gt;" style="rounded=0;whiteSpace=wrap;html=1;rotation=30;" vertex="1" parent="AN7pkXZCnYP8iV07z2iw-103">
          <mxGeometry x="-1" y="13" width="31" height="20" as="geometry" />
        </mxCell>
        <mxCell id="AN7pkXZCnYP8iV07z2iw-106" value="" style="endArrow=classic;html=1;rounded=0;strokeWidth=0.5;exitX=1;exitY=0;exitDx=0;exitDy=0;" edge="1" parent="AN7pkXZCnYP8iV07z2iw-103" source="AN7pkXZCnYP8iV07z2iw-105">
          <mxGeometry width="50" height="50" relative="1" as="geometry">
            <mxPoint x="31" y="16" as="sourcePoint" />
            <mxPoint x="53" y="13" as="targetPoint" />
          </mxGeometry>
        </mxCell>
        <mxCell id="AN7pkXZCnYP8iV07z2iw-107" value="" style="endArrow=classic;html=1;rounded=0;strokeWidth=0.5;exitX=0;exitY=0;exitDx=0;exitDy=0;" edge="1" parent="AN7pkXZCnYP8iV07z2iw-102" source="AN7pkXZCnYP8iV07z2iw-105">
          <mxGeometry width="50" height="50" relative="1" as="geometry">
            <mxPoint x="24" y="34" as="sourcePoint" />
            <mxPoint x="10" y="-3" as="targetPoint" />
          </mxGeometry>
        </mxCell>
        <mxCell id="AN7pkXZCnYP8iV07z2iw-108" value="&lt;p style=&quot;line-height: 40%;&quot;&gt;&lt;font style=&quot;font-size: 6px;&quot;&gt;Obstacle Detector&lt;/font&gt;&lt;/p&gt;" style="rounded=0;whiteSpace=wrap;html=1;rotation=-270;" vertex="1" parent="AN7pkXZCnYP8iV07z2iw-120">
          <mxGeometry x="101.62639558489286" y="58.52643274031817" width="31" height="20" as="geometry" />
        </mxCell>
        <mxCell id="AN7pkXZCnYP8iV07z2iw-109" value="" style="endArrow=classic;html=1;rounded=0;strokeWidth=0.5;exitX=1;exitY=0;exitDx=0;exitDy=0;" edge="1" parent="AN7pkXZCnYP8iV07z2iw-120" source="AN7pkXZCnYP8iV07z2iw-108">
          <mxGeometry width="50" height="50" relative="1" as="geometry">
            <mxPoint x="129.62639558489286" y="80.52643274031817" as="sourcePoint" />
            <mxPoint x="133.62639558489286" y="96.52643274031817" as="targetPoint" />
          </mxGeometry>
        </mxCell>
        <mxCell id="AN7pkXZCnYP8iV07z2iw-110" value="" style="endArrow=classic;html=1;rounded=0;strokeWidth=0.5;exitX=0;exitY=0;exitDx=0;exitDy=0;" edge="1" parent="AN7pkXZCnYP8iV07z2iw-120" source="AN7pkXZCnYP8iV07z2iw-108">
          <mxGeometry width="50" height="50" relative="1" as="geometry">
            <mxPoint x="112.62639558489286" y="77.52643274031817" as="sourcePoint" />
            <mxPoint x="136.62639558489286" y="46.52643274031817" as="targetPoint" />
          </mxGeometry>
        </mxCell>
        <mxCell id="AN7pkXZCnYP8iV07z2iw-111" value="" style="group;rotation=-75;" vertex="1" connectable="0" parent="AN7pkXZCnYP8iV07z2iw-120">
          <mxGeometry x="2.6263955848928617" y="141.52643274031817" width="44.76720883021429" height="39.78917709066104" as="geometry" />
        </mxCell>
        <mxCell id="AN7pkXZCnYP8iV07z2iw-112" value="" style="group;rotation=-60;" vertex="1" connectable="0" parent="AN7pkXZCnYP8iV07z2iw-111">
          <mxGeometry x="3" y="4" width="38.03999999999999" height="31" as="geometry" />
        </mxCell>
        <mxCell id="AN7pkXZCnYP8iV07z2iw-113" value="" style="endArrow=classic;html=1;rounded=0;strokeWidth=0.5;exitX=0.5;exitY=0;exitDx=0;exitDy=0;" edge="1" parent="AN7pkXZCnYP8iV07z2iw-112" source="AN7pkXZCnYP8iV07z2iw-114">
          <mxGeometry width="50" height="50" relative="1" as="geometry">
            <mxPoint x="10" y="42" as="sourcePoint" />
            <mxPoint x="9" y="32" as="targetPoint" />
          </mxGeometry>
        </mxCell>
        <mxCell id="AN7pkXZCnYP8iV07z2iw-114" value="&lt;p style=&quot;line-height: 40%;&quot;&gt;&lt;font style=&quot;font-size: 6px;&quot;&gt;Obstacle Detector&lt;/font&gt;&lt;/p&gt;" style="rounded=0;whiteSpace=wrap;html=1;rotation=-150;" vertex="1" parent="AN7pkXZCnYP8iV07z2iw-112">
          <mxGeometry x="8" y="-2" width="31" height="20" as="geometry" />
        </mxCell>
        <mxCell id="AN7pkXZCnYP8iV07z2iw-115" value="" style="endArrow=classic;html=1;rounded=0;strokeWidth=0.5;exitX=1;exitY=0;exitDx=0;exitDy=0;" edge="1" parent="AN7pkXZCnYP8iV07z2iw-112" source="AN7pkXZCnYP8iV07z2iw-114">
          <mxGeometry width="50" height="50" relative="1" as="geometry">
            <mxPoint x="7" y="14" as="sourcePoint" />
            <mxPoint x="-10" y="6" as="targetPoint" />
          </mxGeometry>
        </mxCell>
        <mxCell id="AN7pkXZCnYP8iV07z2iw-116" value="" style="endArrow=classic;html=1;rounded=0;strokeWidth=0.5;exitX=0;exitY=0;exitDx=0;exitDy=0;" edge="1" parent="AN7pkXZCnYP8iV07z2iw-111" source="AN7pkXZCnYP8iV07z2iw-114">
          <mxGeometry width="50" height="50" relative="1" as="geometry">
            <mxPoint x="21" y="6" as="sourcePoint" />
            <mxPoint x="35" y="43" as="targetPoint" />
          </mxGeometry>
        </mxCell>
        <mxCell id="AN7pkXZCnYP8iV07z2iw-121" value="" style="group;rotation=-30;" vertex="1" connectable="0" parent="1">
          <mxGeometry x="719.9999999999999" y="180.0035672596819" width="136.62639558489286" height="188.19102128564873" as="geometry" />
        </mxCell>
        <mxCell id="AN7pkXZCnYP8iV07z2iw-122" value="" style="ellipse;whiteSpace=wrap;html=1;aspect=fixed;rotation=-30;" vertex="1" parent="AN7pkXZCnYP8iV07z2iw-121">
          <mxGeometry x="18" y="122" width="33" height="33" as="geometry" />
        </mxCell>
        <mxCell id="AN7pkXZCnYP8iV07z2iw-123" value="" style="ellipse;whiteSpace=wrap;html=1;aspect=fixed;rotation=-30;" vertex="1" parent="AN7pkXZCnYP8iV07z2iw-121">
          <mxGeometry x="71" y="122" width="33" height="33" as="geometry" />
        </mxCell>
        <mxCell id="AN7pkXZCnYP8iV07z2iw-124" value="" style="ellipse;whiteSpace=wrap;html=1;aspect=fixed;rotation=-30;" vertex="1" parent="AN7pkXZCnYP8iV07z2iw-121">
          <mxGeometry x="71" y="55" width="33" height="33" as="geometry" />
        </mxCell>
        <mxCell id="AN7pkXZCnYP8iV07z2iw-125" value="" style="ellipse;whiteSpace=wrap;html=1;aspect=fixed;rotation=-30;" vertex="1" parent="AN7pkXZCnYP8iV07z2iw-121">
          <mxGeometry x="18" y="56" width="33" height="33" as="geometry" />
        </mxCell>
        <mxCell id="AN7pkXZCnYP8iV07z2iw-126" value="Arduino Uno" style="rounded=1;whiteSpace=wrap;html=1;rotation=-90;" vertex="1" parent="AN7pkXZCnYP8iV07z2iw-121">
          <mxGeometry x="2" y="75" width="120" height="60" as="geometry" />
        </mxCell>
        <mxCell id="AN7pkXZCnYP8iV07z2iw-127" value="" style="group;rotation=0;" vertex="1" connectable="0" parent="AN7pkXZCnYP8iV07z2iw-121">
          <mxGeometry x="-1" y="26" width="44.76720883021429" height="39.78917709066104" as="geometry" />
        </mxCell>
        <mxCell id="AN7pkXZCnYP8iV07z2iw-128" value="" style="group;rotation=15;" vertex="1" connectable="0" parent="AN7pkXZCnYP8iV07z2iw-127">
          <mxGeometry x="3" y="4" width="38.03999999999999" height="31" as="geometry" />
        </mxCell>
        <mxCell id="AN7pkXZCnYP8iV07z2iw-129" value="" style="endArrow=classic;html=1;rounded=0;strokeWidth=0.5;exitX=0.5;exitY=0;exitDx=0;exitDy=0;" edge="1" parent="AN7pkXZCnYP8iV07z2iw-128" source="AN7pkXZCnYP8iV07z2iw-130">
          <mxGeometry width="50" height="50" relative="1" as="geometry">
            <mxPoint x="-9" y="13" as="sourcePoint" />
            <mxPoint x="1" y="11" as="targetPoint" />
          </mxGeometry>
        </mxCell>
        <mxCell id="AN7pkXZCnYP8iV07z2iw-130" value="&lt;p style=&quot;line-height: 40%;&quot;&gt;&lt;font style=&quot;font-size: 6px;&quot;&gt;Obstacle Detector&lt;/font&gt;&lt;/p&gt;" style="rounded=0;whiteSpace=wrap;html=1;rotation=-75;" vertex="1" parent="AN7pkXZCnYP8iV07z2iw-128">
          <mxGeometry x="12" y="8" width="31" height="20" as="geometry" />
        </mxCell>
        <mxCell id="AN7pkXZCnYP8iV07z2iw-131" value="" style="endArrow=classic;html=1;rounded=0;strokeWidth=0.5;exitX=1;exitY=0;exitDx=0;exitDy=0;" edge="1" parent="AN7pkXZCnYP8iV07z2iw-128" source="AN7pkXZCnYP8iV07z2iw-130">
          <mxGeometry width="50" height="50" relative="1" as="geometry">
            <mxPoint x="17" y="4" as="sourcePoint" />
            <mxPoint x="20" y="-14" as="targetPoint" />
          </mxGeometry>
        </mxCell>
        <mxCell id="AN7pkXZCnYP8iV07z2iw-132" value="" style="endArrow=classic;html=1;rounded=0;strokeWidth=0.5;exitX=0;exitY=0;exitDx=0;exitDy=0;" edge="1" parent="AN7pkXZCnYP8iV07z2iw-127" source="AN7pkXZCnYP8iV07z2iw-130">
          <mxGeometry width="50" height="50" relative="1" as="geometry">
            <mxPoint x="35" y="15" as="sourcePoint" />
            <mxPoint x="3" y="40" as="targetPoint" />
          </mxGeometry>
        </mxCell>
        <mxCell id="AN7pkXZCnYP8iV07z2iw-133" value="" style="group;rotation=75;" vertex="1" connectable="0" parent="AN7pkXZCnYP8iV07z2iw-121">
          <mxGeometry x="43" y="16" width="44.76720883021429" height="39.78917709066104" as="geometry" />
        </mxCell>
        <mxCell id="AN7pkXZCnYP8iV07z2iw-134" value="" style="group;rotation=90;" vertex="1" connectable="0" parent="AN7pkXZCnYP8iV07z2iw-133">
          <mxGeometry x="3" y="4" width="38.03999999999999" height="31" as="geometry" />
        </mxCell>
        <mxCell id="AN7pkXZCnYP8iV07z2iw-135" value="" style="endArrow=classic;html=1;rounded=0;strokeWidth=0.5;exitX=0.5;exitY=0;exitDx=0;exitDy=0;" edge="1" parent="AN7pkXZCnYP8iV07z2iw-134" source="AN7pkXZCnYP8iV07z2iw-136">
          <mxGeometry width="50" height="50" relative="1" as="geometry">
            <mxPoint x="15" y="-13" as="sourcePoint" />
            <mxPoint x="19" y="-5" as="targetPoint" />
          </mxGeometry>
        </mxCell>
        <mxCell id="AN7pkXZCnYP8iV07z2iw-136" value="&lt;p style=&quot;line-height: 40%;&quot;&gt;&lt;font style=&quot;font-size: 6px;&quot;&gt;Obstacle Detector&lt;/font&gt;&lt;/p&gt;" style="rounded=0;whiteSpace=wrap;html=1;rotation=0;" vertex="1" parent="AN7pkXZCnYP8iV07z2iw-134">
          <mxGeometry x="3" y="14" width="31" height="20" as="geometry" />
        </mxCell>
        <mxCell id="AN7pkXZCnYP8iV07z2iw-137" value="" style="endArrow=classic;html=1;rounded=0;strokeWidth=0.5;exitX=1;exitY=0;exitDx=0;exitDy=0;" edge="1" parent="AN7pkXZCnYP8iV07z2iw-134" source="AN7pkXZCnYP8iV07z2iw-136">
          <mxGeometry width="50" height="50" relative="1" as="geometry">
            <mxPoint x="30" y="10" as="sourcePoint" />
            <mxPoint x="47" y="-4" as="targetPoint" />
          </mxGeometry>
        </mxCell>
        <mxCell id="AN7pkXZCnYP8iV07z2iw-138" value="" style="endArrow=classic;html=1;rounded=0;strokeWidth=0.5;exitX=0;exitY=0;exitDx=0;exitDy=0;" edge="1" parent="AN7pkXZCnYP8iV07z2iw-133" source="AN7pkXZCnYP8iV07z2iw-136">
          <mxGeometry width="50" height="50" relative="1" as="geometry">
            <mxPoint x="31" y="31" as="sourcePoint" />
            <mxPoint y="6" as="targetPoint" />
          </mxGeometry>
        </mxCell>
        <mxCell id="AN7pkXZCnYP8iV07z2iw-139" value="&lt;p style=&quot;line-height: 40%;&quot;&gt;&lt;font style=&quot;font-size: 6px;&quot;&gt;Obstacle Detector&lt;/font&gt;&lt;/p&gt;" style="rounded=0;whiteSpace=wrap;html=1;rotation=-300;" vertex="1" parent="AN7pkXZCnYP8iV07z2iw-121">
          <mxGeometry x="82" y="38" width="31" height="20" as="geometry" />
        </mxCell>
        <mxCell id="AN7pkXZCnYP8iV07z2iw-140" value="" style="endArrow=classic;html=1;rounded=0;strokeWidth=0.5;exitX=1;exitY=0;exitDx=0;exitDy=0;" edge="1" parent="AN7pkXZCnYP8iV07z2iw-121" source="AN7pkXZCnYP8iV07z2iw-139">
          <mxGeometry width="50" height="50" relative="1" as="geometry">
            <mxPoint x="115" y="52" as="sourcePoint" />
            <mxPoint x="126" y="64" as="targetPoint" />
          </mxGeometry>
        </mxCell>
        <mxCell id="AN7pkXZCnYP8iV07z2iw-141" value="" style="endArrow=classic;html=1;rounded=0;strokeWidth=0.5;exitX=0;exitY=0;exitDx=0;exitDy=0;" edge="1" parent="AN7pkXZCnYP8iV07z2iw-121" source="AN7pkXZCnYP8iV07z2iw-139">
          <mxGeometry width="50" height="50" relative="1" as="geometry">
            <mxPoint x="99" y="58" as="sourcePoint" />
            <mxPoint x="104" y="18" as="targetPoint" />
          </mxGeometry>
        </mxCell>
        <mxCell id="AN7pkXZCnYP8iV07z2iw-142" value="" style="group;rotation=-105;" vertex="1" connectable="0" parent="AN7pkXZCnYP8iV07z2iw-121">
          <mxGeometry x="42" y="154" width="44.76720883021429" height="39.78917709066104" as="geometry" />
        </mxCell>
        <mxCell id="AN7pkXZCnYP8iV07z2iw-143" value="" style="group;rotation=-90;" vertex="1" connectable="0" parent="AN7pkXZCnYP8iV07z2iw-142">
          <mxGeometry x="3" y="4" width="38.03999999999999" height="31" as="geometry" />
        </mxCell>
        <mxCell id="AN7pkXZCnYP8iV07z2iw-144" value="" style="endArrow=classic;html=1;rounded=0;strokeWidth=0.5;exitX=0.5;exitY=0;exitDx=0;exitDy=0;" edge="1" parent="AN7pkXZCnYP8iV07z2iw-143" source="AN7pkXZCnYP8iV07z2iw-145">
          <mxGeometry width="50" height="50" relative="1" as="geometry">
            <mxPoint x="24" y="43" as="sourcePoint" />
            <mxPoint x="19" y="35" as="targetPoint" />
          </mxGeometry>
        </mxCell>
        <mxCell id="AN7pkXZCnYP8iV07z2iw-145" value="&lt;p style=&quot;line-height: 40%;&quot;&gt;&lt;font style=&quot;font-size: 6px;&quot;&gt;Obstacle Detector&lt;/font&gt;&lt;/p&gt;" style="rounded=0;whiteSpace=wrap;html=1;rotation=-180;" vertex="1" parent="AN7pkXZCnYP8iV07z2iw-143">
          <mxGeometry x="4" y="-3" width="31" height="20" as="geometry" />
        </mxCell>
        <mxCell id="AN7pkXZCnYP8iV07z2iw-146" value="" style="endArrow=classic;html=1;rounded=0;strokeWidth=0.5;exitX=1;exitY=0;exitDx=0;exitDy=0;" edge="1" parent="AN7pkXZCnYP8iV07z2iw-143" source="AN7pkXZCnYP8iV07z2iw-145">
          <mxGeometry width="50" height="50" relative="1" as="geometry">
            <mxPoint x="8" y="20" as="sourcePoint" />
            <mxPoint x="-10" y="22" as="targetPoint" />
          </mxGeometry>
        </mxCell>
        <mxCell id="AN7pkXZCnYP8iV07z2iw-147" value="" style="endArrow=classic;html=1;rounded=0;strokeWidth=0.5;exitX=0;exitY=0;exitDx=0;exitDy=0;" edge="1" parent="AN7pkXZCnYP8iV07z2iw-142" source="AN7pkXZCnYP8iV07z2iw-145">
          <mxGeometry width="50" height="50" relative="1" as="geometry">
            <mxPoint x="14" y="9" as="sourcePoint" />
            <mxPoint x="45" y="34" as="targetPoint" />
          </mxGeometry>
        </mxCell>
        <mxCell id="AN7pkXZCnYP8iV07z2iw-148" value="&lt;font style=&quot;font-size: 9px;&quot;&gt;Obstacle&lt;/font&gt;" style="shape=cylinder3;whiteSpace=wrap;html=1;boundedLbl=1;backgroundOutline=1;size=12.304347826087024;" vertex="1" parent="1">
          <mxGeometry x="890" y="270" width="60" height="70" as="geometry" />
        </mxCell>
        <mxCell id="AN7pkXZCnYP8iV07z2iw-149" value="" style="curved=1;endArrow=classic;html=1;rounded=0;" edge="1" parent="1">
          <mxGeometry width="50" height="50" relative="1" as="geometry">
            <mxPoint x="890" y="490" as="sourcePoint" />
            <mxPoint x="980" y="320" as="targetPoint" />
            <Array as="points">
              <mxPoint x="890" y="400" />
              <mxPoint x="930" y="350" />
            </Array>
          </mxGeometry>
        </mxCell>
        <mxCell id="AN7pkXZCnYP8iV07z2iw-150" value="" style="endArrow=classic;html=1;rounded=0;" edge="1" parent="1">
          <mxGeometry width="50" height="50" relative="1" as="geometry">
            <mxPoint x="980" y="300" as="sourcePoint" />
            <mxPoint x="980" y="250" as="targetPoint" />
          </mxGeometry>
        </mxCell>
        <mxCell id="AN7pkXZCnYP8iV07z2iw-151" value="" style="curved=1;endArrow=classic;html=1;rounded=0;" edge="1" parent="1">
          <mxGeometry width="50" height="50" relative="1" as="geometry">
            <mxPoint x="980" y="240" as="sourcePoint" />
            <mxPoint x="910" y="160" as="targetPoint" />
            <Array as="points">
              <mxPoint x="990" y="240" />
              <mxPoint x="900" y="230" />
              <mxPoint x="910" y="190" />
            </Array>
          </mxGeometry>
        </mxCell>
        <mxCell id="AN7pkXZCnYP8iV07z2iw-152" value="" style="group" vertex="1" connectable="0" parent="1">
          <mxGeometry x="928.3699999999999" y="346.5935672596819" width="136.62639558489286" height="188.19102128564873" as="geometry" />
        </mxCell>
        <mxCell id="AN7pkXZCnYP8iV07z2iw-153" value="" style="ellipse;whiteSpace=wrap;html=1;aspect=fixed;rotation=0;" vertex="1" parent="AN7pkXZCnYP8iV07z2iw-152">
          <mxGeometry x="0.6263955848928617" y="99.52643274031817" width="33" height="33" as="geometry" />
        </mxCell>
        <mxCell id="AN7pkXZCnYP8iV07z2iw-154" value="" style="ellipse;whiteSpace=wrap;html=1;aspect=fixed;rotation=0;" vertex="1" parent="AN7pkXZCnYP8iV07z2iw-152">
          <mxGeometry x="46.62639558489286" y="125.52643274031817" width="33" height="33" as="geometry" />
        </mxCell>
        <mxCell id="AN7pkXZCnYP8iV07z2iw-155" value="" style="ellipse;whiteSpace=wrap;html=1;aspect=fixed;rotation=0;" vertex="1" parent="AN7pkXZCnYP8iV07z2iw-152">
          <mxGeometry x="79.62639558489286" y="67.52643274031817" width="33" height="33" as="geometry" />
        </mxCell>
        <mxCell id="AN7pkXZCnYP8iV07z2iw-156" value="" style="ellipse;whiteSpace=wrap;html=1;aspect=fixed;rotation=0;" vertex="1" parent="AN7pkXZCnYP8iV07z2iw-152">
          <mxGeometry x="33.62639558489286" y="42.52643274031817" width="33" height="33" as="geometry" />
        </mxCell>
        <mxCell id="AN7pkXZCnYP8iV07z2iw-157" value="Arduino Uno" style="rounded=1;whiteSpace=wrap;html=1;rotation=-60;" vertex="1" parent="AN7pkXZCnYP8iV07z2iw-152">
          <mxGeometry x="-3.3736044151071383" y="70.52643274031817" width="120" height="60" as="geometry" />
        </mxCell>
        <mxCell id="AN7pkXZCnYP8iV07z2iw-158" value="" style="group;rotation=30;" vertex="1" connectable="0" parent="AN7pkXZCnYP8iV07z2iw-152">
          <mxGeometry x="29.62639558489286" y="8.526432740318171" width="44.76720883021429" height="39.78917709066104" as="geometry" />
        </mxCell>
        <mxCell id="AN7pkXZCnYP8iV07z2iw-159" value="" style="group;rotation=45;" vertex="1" connectable="0" parent="AN7pkXZCnYP8iV07z2iw-158">
          <mxGeometry x="3" y="4" width="38.03999999999999" height="31" as="geometry" />
        </mxCell>
        <mxCell id="AN7pkXZCnYP8iV07z2iw-160" value="" style="endArrow=classic;html=1;rounded=0;strokeWidth=0.5;exitX=0.5;exitY=0;exitDx=0;exitDy=0;" edge="1" parent="AN7pkXZCnYP8iV07z2iw-159" source="AN7pkXZCnYP8iV07z2iw-161">
          <mxGeometry width="50" height="50" relative="1" as="geometry">
            <mxPoint x="-4" as="sourcePoint" />
            <mxPoint x="6" y="3" as="targetPoint" />
          </mxGeometry>
        </mxCell>
        <mxCell id="AN7pkXZCnYP8iV07z2iw-161" value="&lt;p style=&quot;line-height: 40%;&quot;&gt;&lt;font style=&quot;font-size: 6px;&quot;&gt;Obstacle Detector&lt;/font&gt;&lt;/p&gt;" style="rounded=0;whiteSpace=wrap;html=1;rotation=-45;" vertex="1" parent="AN7pkXZCnYP8iV07z2iw-159">
          <mxGeometry x="10" y="12" width="31" height="20" as="geometry" />
        </mxCell>
        <mxCell id="AN7pkXZCnYP8iV07z2iw-162" value="" style="endArrow=classic;html=1;rounded=0;strokeWidth=0.5;exitX=1;exitY=0;exitDx=0;exitDy=0;" edge="1" parent="AN7pkXZCnYP8iV07z2iw-159" source="AN7pkXZCnYP8iV07z2iw-161">
          <mxGeometry width="50" height="50" relative="1" as="geometry">
            <mxPoint x="23" y="5" as="sourcePoint" />
            <mxPoint x="35" y="-10" as="targetPoint" />
          </mxGeometry>
        </mxCell>
        <mxCell id="AN7pkXZCnYP8iV07z2iw-163" value="" style="endArrow=classic;html=1;rounded=0;strokeWidth=0.5;exitX=0;exitY=0;exitDx=0;exitDy=0;" edge="1" parent="AN7pkXZCnYP8iV07z2iw-158" source="AN7pkXZCnYP8iV07z2iw-161">
          <mxGeometry width="50" height="50" relative="1" as="geometry">
            <mxPoint x="36" y="22" as="sourcePoint" />
            <mxPoint x="-4" y="27" as="targetPoint" />
          </mxGeometry>
        </mxCell>
        <mxCell id="AN7pkXZCnYP8iV07z2iw-164" value="" style="group;rotation=105;" vertex="1" connectable="0" parent="AN7pkXZCnYP8iV07z2iw-152">
          <mxGeometry x="72.62639558489286" y="22.52643274031817" width="44.76720883021429" height="39.78917709066104" as="geometry" />
        </mxCell>
        <mxCell id="AN7pkXZCnYP8iV07z2iw-165" value="" style="group;rotation=120;" vertex="1" connectable="0" parent="AN7pkXZCnYP8iV07z2iw-164">
          <mxGeometry x="3" y="4" width="38.03999999999999" height="31" as="geometry" />
        </mxCell>
        <mxCell id="AN7pkXZCnYP8iV07z2iw-166" value="" style="endArrow=classic;html=1;rounded=0;strokeWidth=0.5;exitX=0.5;exitY=0;exitDx=0;exitDy=0;" edge="1" parent="AN7pkXZCnYP8iV07z2iw-165" source="AN7pkXZCnYP8iV07z2iw-167">
          <mxGeometry width="50" height="50" relative="1" as="geometry">
            <mxPoint x="29" y="-11" as="sourcePoint" />
            <mxPoint x="29" y="-2" as="targetPoint" />
          </mxGeometry>
        </mxCell>
        <mxCell id="AN7pkXZCnYP8iV07z2iw-167" value="&lt;p style=&quot;line-height: 40%;&quot;&gt;&lt;font style=&quot;font-size: 6px;&quot;&gt;Obstacle Detector&lt;/font&gt;&lt;/p&gt;" style="rounded=0;whiteSpace=wrap;html=1;rotation=30;" vertex="1" parent="AN7pkXZCnYP8iV07z2iw-165">
          <mxGeometry x="-1" y="13" width="31" height="20" as="geometry" />
        </mxCell>
        <mxCell id="AN7pkXZCnYP8iV07z2iw-168" value="" style="endArrow=classic;html=1;rounded=0;strokeWidth=0.5;exitX=1;exitY=0;exitDx=0;exitDy=0;" edge="1" parent="AN7pkXZCnYP8iV07z2iw-165" source="AN7pkXZCnYP8iV07z2iw-167">
          <mxGeometry width="50" height="50" relative="1" as="geometry">
            <mxPoint x="31" y="16" as="sourcePoint" />
            <mxPoint x="53" y="13" as="targetPoint" />
          </mxGeometry>
        </mxCell>
        <mxCell id="AN7pkXZCnYP8iV07z2iw-169" value="" style="endArrow=classic;html=1;rounded=0;strokeWidth=0.5;exitX=0;exitY=0;exitDx=0;exitDy=0;" edge="1" parent="AN7pkXZCnYP8iV07z2iw-164" source="AN7pkXZCnYP8iV07z2iw-167">
          <mxGeometry width="50" height="50" relative="1" as="geometry">
            <mxPoint x="24" y="34" as="sourcePoint" />
            <mxPoint x="10" y="-3" as="targetPoint" />
          </mxGeometry>
        </mxCell>
        <mxCell id="AN7pkXZCnYP8iV07z2iw-170" value="&lt;p style=&quot;line-height: 40%;&quot;&gt;&lt;font style=&quot;font-size: 6px;&quot;&gt;Obstacle Detector&lt;/font&gt;&lt;/p&gt;" style="rounded=0;whiteSpace=wrap;html=1;rotation=-270;" vertex="1" parent="AN7pkXZCnYP8iV07z2iw-152">
          <mxGeometry x="101.62639558489286" y="58.52643274031817" width="31" height="20" as="geometry" />
        </mxCell>
        <mxCell id="AN7pkXZCnYP8iV07z2iw-171" value="" style="endArrow=classic;html=1;rounded=0;strokeWidth=0.5;exitX=1;exitY=0;exitDx=0;exitDy=0;" edge="1" parent="AN7pkXZCnYP8iV07z2iw-152" source="AN7pkXZCnYP8iV07z2iw-170">
          <mxGeometry width="50" height="50" relative="1" as="geometry">
            <mxPoint x="129.62639558489286" y="80.52643274031817" as="sourcePoint" />
            <mxPoint x="133.62639558489286" y="96.52643274031817" as="targetPoint" />
          </mxGeometry>
        </mxCell>
        <mxCell id="AN7pkXZCnYP8iV07z2iw-172" value="" style="endArrow=classic;html=1;rounded=0;strokeWidth=0.5;exitX=0;exitY=0;exitDx=0;exitDy=0;" edge="1" parent="AN7pkXZCnYP8iV07z2iw-152" source="AN7pkXZCnYP8iV07z2iw-170">
          <mxGeometry width="50" height="50" relative="1" as="geometry">
            <mxPoint x="112.62639558489286" y="77.52643274031817" as="sourcePoint" />
            <mxPoint x="136.62639558489286" y="46.52643274031817" as="targetPoint" />
          </mxGeometry>
        </mxCell>
        <mxCell id="AN7pkXZCnYP8iV07z2iw-173" value="" style="group;rotation=-75;" vertex="1" connectable="0" parent="AN7pkXZCnYP8iV07z2iw-152">
          <mxGeometry x="2.6263955848928617" y="141.52643274031817" width="44.76720883021429" height="39.78917709066104" as="geometry" />
        </mxCell>
        <mxCell id="AN7pkXZCnYP8iV07z2iw-174" value="" style="group;rotation=-60;" vertex="1" connectable="0" parent="AN7pkXZCnYP8iV07z2iw-173">
          <mxGeometry x="3" y="4" width="38.03999999999999" height="31" as="geometry" />
        </mxCell>
        <mxCell id="AN7pkXZCnYP8iV07z2iw-175" value="" style="endArrow=classic;html=1;rounded=0;strokeWidth=0.5;exitX=0.5;exitY=0;exitDx=0;exitDy=0;" edge="1" parent="AN7pkXZCnYP8iV07z2iw-174" source="AN7pkXZCnYP8iV07z2iw-176">
          <mxGeometry width="50" height="50" relative="1" as="geometry">
            <mxPoint x="10" y="42" as="sourcePoint" />
            <mxPoint x="9" y="32" as="targetPoint" />
          </mxGeometry>
        </mxCell>
        <mxCell id="AN7pkXZCnYP8iV07z2iw-176" value="&lt;p style=&quot;line-height: 40%;&quot;&gt;&lt;font style=&quot;font-size: 6px;&quot;&gt;Obstacle Detector&lt;/font&gt;&lt;/p&gt;" style="rounded=0;whiteSpace=wrap;html=1;rotation=-150;" vertex="1" parent="AN7pkXZCnYP8iV07z2iw-174">
          <mxGeometry x="8" y="-2" width="31" height="20" as="geometry" />
        </mxCell>
        <mxCell id="AN7pkXZCnYP8iV07z2iw-177" value="" style="endArrow=classic;html=1;rounded=0;strokeWidth=0.5;exitX=1;exitY=0;exitDx=0;exitDy=0;" edge="1" parent="AN7pkXZCnYP8iV07z2iw-174" source="AN7pkXZCnYP8iV07z2iw-176">
          <mxGeometry width="50" height="50" relative="1" as="geometry">
            <mxPoint x="7" y="14" as="sourcePoint" />
            <mxPoint x="-10" y="6" as="targetPoint" />
          </mxGeometry>
        </mxCell>
        <mxCell id="AN7pkXZCnYP8iV07z2iw-178" value="" style="endArrow=classic;html=1;rounded=0;strokeWidth=0.5;exitX=0;exitY=0;exitDx=0;exitDy=0;" edge="1" parent="AN7pkXZCnYP8iV07z2iw-173" source="AN7pkXZCnYP8iV07z2iw-176">
          <mxGeometry width="50" height="50" relative="1" as="geometry">
            <mxPoint x="21" y="6" as="sourcePoint" />
            <mxPoint x="35" y="43" as="targetPoint" />
          </mxGeometry>
        </mxCell>
        <mxCell id="AN7pkXZCnYP8iV07z2iw-179" value="" style="group;rotation=-30;" vertex="1" connectable="0" parent="1">
          <mxGeometry x="1030" y="198.1235672596819" width="136.62639558489286" height="188.19102128564873" as="geometry" />
        </mxCell>
        <mxCell id="AN7pkXZCnYP8iV07z2iw-180" value="" style="ellipse;whiteSpace=wrap;html=1;aspect=fixed;rotation=-30;" vertex="1" parent="AN7pkXZCnYP8iV07z2iw-179">
          <mxGeometry x="18" y="122" width="33" height="33" as="geometry" />
        </mxCell>
        <mxCell id="AN7pkXZCnYP8iV07z2iw-181" value="" style="ellipse;whiteSpace=wrap;html=1;aspect=fixed;rotation=-30;" vertex="1" parent="AN7pkXZCnYP8iV07z2iw-179">
          <mxGeometry x="71" y="122" width="33" height="33" as="geometry" />
        </mxCell>
        <mxCell id="AN7pkXZCnYP8iV07z2iw-182" value="" style="ellipse;whiteSpace=wrap;html=1;aspect=fixed;rotation=-30;" vertex="1" parent="AN7pkXZCnYP8iV07z2iw-179">
          <mxGeometry x="71" y="55" width="33" height="33" as="geometry" />
        </mxCell>
        <mxCell id="AN7pkXZCnYP8iV07z2iw-183" value="" style="ellipse;whiteSpace=wrap;html=1;aspect=fixed;rotation=-30;" vertex="1" parent="AN7pkXZCnYP8iV07z2iw-179">
          <mxGeometry x="18" y="56" width="33" height="33" as="geometry" />
        </mxCell>
        <mxCell id="AN7pkXZCnYP8iV07z2iw-184" value="Arduino Uno" style="rounded=1;whiteSpace=wrap;html=1;rotation=-90;" vertex="1" parent="AN7pkXZCnYP8iV07z2iw-179">
          <mxGeometry x="2" y="75" width="120" height="60" as="geometry" />
        </mxCell>
        <mxCell id="AN7pkXZCnYP8iV07z2iw-185" value="" style="group;rotation=0;" vertex="1" connectable="0" parent="AN7pkXZCnYP8iV07z2iw-179">
          <mxGeometry x="-1" y="26" width="44.76720883021429" height="39.78917709066104" as="geometry" />
        </mxCell>
        <mxCell id="AN7pkXZCnYP8iV07z2iw-186" value="" style="group;rotation=15;" vertex="1" connectable="0" parent="AN7pkXZCnYP8iV07z2iw-185">
          <mxGeometry x="3" y="4" width="38.03999999999999" height="31" as="geometry" />
        </mxCell>
        <mxCell id="AN7pkXZCnYP8iV07z2iw-187" value="" style="endArrow=classic;html=1;rounded=0;strokeWidth=0.5;exitX=0.5;exitY=0;exitDx=0;exitDy=0;" edge="1" parent="AN7pkXZCnYP8iV07z2iw-186" source="AN7pkXZCnYP8iV07z2iw-188">
          <mxGeometry width="50" height="50" relative="1" as="geometry">
            <mxPoint x="-9" y="13" as="sourcePoint" />
            <mxPoint x="1" y="11" as="targetPoint" />
          </mxGeometry>
        </mxCell>
        <mxCell id="AN7pkXZCnYP8iV07z2iw-188" value="&lt;p style=&quot;line-height: 40%;&quot;&gt;&lt;font style=&quot;font-size: 6px;&quot;&gt;Obstacle Detector&lt;/font&gt;&lt;/p&gt;" style="rounded=0;whiteSpace=wrap;html=1;rotation=-75;" vertex="1" parent="AN7pkXZCnYP8iV07z2iw-186">
          <mxGeometry x="12" y="8" width="31" height="20" as="geometry" />
        </mxCell>
        <mxCell id="AN7pkXZCnYP8iV07z2iw-189" value="" style="endArrow=classic;html=1;rounded=0;strokeWidth=0.5;exitX=1;exitY=0;exitDx=0;exitDy=0;" edge="1" parent="AN7pkXZCnYP8iV07z2iw-186" source="AN7pkXZCnYP8iV07z2iw-188">
          <mxGeometry width="50" height="50" relative="1" as="geometry">
            <mxPoint x="17" y="4" as="sourcePoint" />
            <mxPoint x="20" y="-14" as="targetPoint" />
          </mxGeometry>
        </mxCell>
        <mxCell id="AN7pkXZCnYP8iV07z2iw-190" value="" style="endArrow=classic;html=1;rounded=0;strokeWidth=0.5;exitX=0;exitY=0;exitDx=0;exitDy=0;" edge="1" parent="AN7pkXZCnYP8iV07z2iw-185" source="AN7pkXZCnYP8iV07z2iw-188">
          <mxGeometry width="50" height="50" relative="1" as="geometry">
            <mxPoint x="35" y="15" as="sourcePoint" />
            <mxPoint x="3" y="40" as="targetPoint" />
          </mxGeometry>
        </mxCell>
        <mxCell id="AN7pkXZCnYP8iV07z2iw-191" value="" style="group;rotation=75;" vertex="1" connectable="0" parent="AN7pkXZCnYP8iV07z2iw-179">
          <mxGeometry x="43" y="16" width="44.76720883021429" height="39.78917709066104" as="geometry" />
        </mxCell>
        <mxCell id="AN7pkXZCnYP8iV07z2iw-192" value="" style="group;rotation=90;" vertex="1" connectable="0" parent="AN7pkXZCnYP8iV07z2iw-191">
          <mxGeometry x="3" y="4" width="38.03999999999999" height="31" as="geometry" />
        </mxCell>
        <mxCell id="AN7pkXZCnYP8iV07z2iw-193" value="" style="endArrow=classic;html=1;rounded=0;strokeWidth=0.5;exitX=0.5;exitY=0;exitDx=0;exitDy=0;" edge="1" parent="AN7pkXZCnYP8iV07z2iw-192" source="AN7pkXZCnYP8iV07z2iw-194">
          <mxGeometry width="50" height="50" relative="1" as="geometry">
            <mxPoint x="15" y="-13" as="sourcePoint" />
            <mxPoint x="19" y="-5" as="targetPoint" />
          </mxGeometry>
        </mxCell>
        <mxCell id="AN7pkXZCnYP8iV07z2iw-194" value="&lt;p style=&quot;line-height: 40%;&quot;&gt;&lt;font style=&quot;font-size: 6px;&quot;&gt;Obstacle Detector&lt;/font&gt;&lt;/p&gt;" style="rounded=0;whiteSpace=wrap;html=1;rotation=0;" vertex="1" parent="AN7pkXZCnYP8iV07z2iw-192">
          <mxGeometry x="3" y="14" width="31" height="20" as="geometry" />
        </mxCell>
        <mxCell id="AN7pkXZCnYP8iV07z2iw-195" value="" style="endArrow=classic;html=1;rounded=0;strokeWidth=0.5;exitX=1;exitY=0;exitDx=0;exitDy=0;" edge="1" parent="AN7pkXZCnYP8iV07z2iw-192" source="AN7pkXZCnYP8iV07z2iw-194">
          <mxGeometry width="50" height="50" relative="1" as="geometry">
            <mxPoint x="30" y="10" as="sourcePoint" />
            <mxPoint x="47" y="-4" as="targetPoint" />
          </mxGeometry>
        </mxCell>
        <mxCell id="AN7pkXZCnYP8iV07z2iw-196" value="" style="endArrow=classic;html=1;rounded=0;strokeWidth=0.5;exitX=0;exitY=0;exitDx=0;exitDy=0;" edge="1" parent="AN7pkXZCnYP8iV07z2iw-191" source="AN7pkXZCnYP8iV07z2iw-194">
          <mxGeometry width="50" height="50" relative="1" as="geometry">
            <mxPoint x="31" y="31" as="sourcePoint" />
            <mxPoint y="6" as="targetPoint" />
          </mxGeometry>
        </mxCell>
        <mxCell id="AN7pkXZCnYP8iV07z2iw-197" value="&lt;p style=&quot;line-height: 40%;&quot;&gt;&lt;font style=&quot;font-size: 6px;&quot;&gt;Obstacle Detector&lt;/font&gt;&lt;/p&gt;" style="rounded=0;whiteSpace=wrap;html=1;rotation=-300;" vertex="1" parent="AN7pkXZCnYP8iV07z2iw-179">
          <mxGeometry x="82" y="38" width="31" height="20" as="geometry" />
        </mxCell>
        <mxCell id="AN7pkXZCnYP8iV07z2iw-198" value="" style="endArrow=classic;html=1;rounded=0;strokeWidth=0.5;exitX=1;exitY=0;exitDx=0;exitDy=0;" edge="1" parent="AN7pkXZCnYP8iV07z2iw-179" source="AN7pkXZCnYP8iV07z2iw-197">
          <mxGeometry width="50" height="50" relative="1" as="geometry">
            <mxPoint x="115" y="52" as="sourcePoint" />
            <mxPoint x="126" y="64" as="targetPoint" />
          </mxGeometry>
        </mxCell>
        <mxCell id="AN7pkXZCnYP8iV07z2iw-199" value="" style="endArrow=classic;html=1;rounded=0;strokeWidth=0.5;exitX=0;exitY=0;exitDx=0;exitDy=0;" edge="1" parent="AN7pkXZCnYP8iV07z2iw-179" source="AN7pkXZCnYP8iV07z2iw-197">
          <mxGeometry width="50" height="50" relative="1" as="geometry">
            <mxPoint x="99" y="58" as="sourcePoint" />
            <mxPoint x="104" y="18" as="targetPoint" />
          </mxGeometry>
        </mxCell>
        <mxCell id="AN7pkXZCnYP8iV07z2iw-200" value="" style="group;rotation=-105;" vertex="1" connectable="0" parent="AN7pkXZCnYP8iV07z2iw-179">
          <mxGeometry x="42" y="154" width="44.76720883021429" height="39.78917709066104" as="geometry" />
        </mxCell>
        <mxCell id="AN7pkXZCnYP8iV07z2iw-201" value="" style="group;rotation=-90;" vertex="1" connectable="0" parent="AN7pkXZCnYP8iV07z2iw-200">
          <mxGeometry x="3" y="4" width="38.03999999999999" height="31" as="geometry" />
        </mxCell>
        <mxCell id="AN7pkXZCnYP8iV07z2iw-202" value="" style="endArrow=classic;html=1;rounded=0;strokeWidth=0.5;exitX=0.5;exitY=0;exitDx=0;exitDy=0;" edge="1" parent="AN7pkXZCnYP8iV07z2iw-201" source="AN7pkXZCnYP8iV07z2iw-203">
          <mxGeometry width="50" height="50" relative="1" as="geometry">
            <mxPoint x="24" y="43" as="sourcePoint" />
            <mxPoint x="19" y="35" as="targetPoint" />
          </mxGeometry>
        </mxCell>
        <mxCell id="AN7pkXZCnYP8iV07z2iw-203" value="&lt;p style=&quot;line-height: 40%;&quot;&gt;&lt;font style=&quot;font-size: 6px;&quot;&gt;Obstacle Detector&lt;/font&gt;&lt;/p&gt;" style="rounded=0;whiteSpace=wrap;html=1;rotation=-180;" vertex="1" parent="AN7pkXZCnYP8iV07z2iw-201">
          <mxGeometry x="4" y="-3" width="31" height="20" as="geometry" />
        </mxCell>
        <mxCell id="AN7pkXZCnYP8iV07z2iw-204" value="" style="endArrow=classic;html=1;rounded=0;strokeWidth=0.5;exitX=1;exitY=0;exitDx=0;exitDy=0;" edge="1" parent="AN7pkXZCnYP8iV07z2iw-201" source="AN7pkXZCnYP8iV07z2iw-203">
          <mxGeometry width="50" height="50" relative="1" as="geometry">
            <mxPoint x="8" y="20" as="sourcePoint" />
            <mxPoint x="-10" y="22" as="targetPoint" />
          </mxGeometry>
        </mxCell>
        <mxCell id="AN7pkXZCnYP8iV07z2iw-205" value="" style="endArrow=classic;html=1;rounded=0;strokeWidth=0.5;exitX=0;exitY=0;exitDx=0;exitDy=0;" edge="1" parent="AN7pkXZCnYP8iV07z2iw-200" source="AN7pkXZCnYP8iV07z2iw-203">
          <mxGeometry width="50" height="50" relative="1" as="geometry">
            <mxPoint x="14" y="9" as="sourcePoint" />
            <mxPoint x="45" y="34" as="targetPoint" />
          </mxGeometry>
        </mxCell>
        <mxCell id="AN7pkXZCnYP8iV07z2iw-206" value="" style="group;rotation=-60;" vertex="1" connectable="0" parent="1">
          <mxGeometry x="969" y="11.003567259681887" width="136.62639558489286" height="188.19102128564873" as="geometry" />
        </mxCell>
        <mxCell id="AN7pkXZCnYP8iV07z2iw-207" value="" style="ellipse;whiteSpace=wrap;html=1;aspect=fixed;rotation=-60;" vertex="1" parent="AN7pkXZCnYP8iV07z2iw-206">
          <mxGeometry x="45" y="133" width="33" height="33" as="geometry" />
        </mxCell>
        <mxCell id="AN7pkXZCnYP8iV07z2iw-208" value="" style="ellipse;whiteSpace=wrap;html=1;aspect=fixed;rotation=-60;" vertex="1" parent="AN7pkXZCnYP8iV07z2iw-206">
          <mxGeometry x="91" y="106" width="33" height="33" as="geometry" />
        </mxCell>
        <mxCell id="AN7pkXZCnYP8iV07z2iw-209" value="" style="ellipse;whiteSpace=wrap;html=1;aspect=fixed;rotation=-60;" vertex="1" parent="AN7pkXZCnYP8iV07z2iw-206">
          <mxGeometry x="57" y="48" width="33" height="33" as="geometry" />
        </mxCell>
        <mxCell id="AN7pkXZCnYP8iV07z2iw-210" value="" style="ellipse;whiteSpace=wrap;html=1;aspect=fixed;rotation=-60;" vertex="1" parent="AN7pkXZCnYP8iV07z2iw-206">
          <mxGeometry x="12" y="76" width="33" height="33" as="geometry" />
        </mxCell>
        <mxCell id="AN7pkXZCnYP8iV07z2iw-211" value="Arduino Uno" style="rounded=1;whiteSpace=wrap;html=1;rotation=-120;" vertex="1" parent="AN7pkXZCnYP8iV07z2iw-206">
          <mxGeometry x="8" y="77" width="120" height="60" as="geometry" />
        </mxCell>
        <mxCell id="AN7pkXZCnYP8iV07z2iw-212" value="" style="group;rotation=-30;" vertex="1" connectable="0" parent="AN7pkXZCnYP8iV07z2iw-206">
          <mxGeometry x="-19" y="56" width="44.76720883021429" height="39.78917709066104" as="geometry" />
        </mxCell>
        <mxCell id="AN7pkXZCnYP8iV07z2iw-213" value="" style="group;rotation=-15;" vertex="1" connectable="0" parent="AN7pkXZCnYP8iV07z2iw-212">
          <mxGeometry x="3" y="4" width="38.03999999999999" height="31" as="geometry" />
        </mxCell>
        <mxCell id="AN7pkXZCnYP8iV07z2iw-214" value="" style="endArrow=classic;html=1;rounded=0;strokeWidth=0.5;exitX=0.5;exitY=0;exitDx=0;exitDy=0;" edge="1" parent="AN7pkXZCnYP8iV07z2iw-213" source="AN7pkXZCnYP8iV07z2iw-215">
          <mxGeometry width="50" height="50" relative="1" as="geometry">
            <mxPoint x="-6" y="27" as="sourcePoint" />
            <mxPoint x="1" y="21" as="targetPoint" />
          </mxGeometry>
        </mxCell>
        <mxCell id="AN7pkXZCnYP8iV07z2iw-215" value="&lt;p style=&quot;line-height: 40%;&quot;&gt;&lt;font style=&quot;font-size: 6px;&quot;&gt;Obstacle Detector&lt;/font&gt;&lt;/p&gt;" style="rounded=0;whiteSpace=wrap;html=1;rotation=-105;" vertex="1" parent="AN7pkXZCnYP8iV07z2iw-213">
          <mxGeometry x="12" y="3" width="31" height="20" as="geometry" />
        </mxCell>
        <mxCell id="AN7pkXZCnYP8iV07z2iw-216" value="" style="endArrow=classic;html=1;rounded=0;strokeWidth=0.5;exitX=1;exitY=0;exitDx=0;exitDy=0;" edge="1" parent="AN7pkXZCnYP8iV07z2iw-213" source="AN7pkXZCnYP8iV07z2iw-215">
          <mxGeometry width="50" height="50" relative="1" as="geometry">
            <mxPoint x="12" y="7" as="sourcePoint" />
            <mxPoint x="5" y="-11" as="targetPoint" />
          </mxGeometry>
        </mxCell>
        <mxCell id="AN7pkXZCnYP8iV07z2iw-217" value="" style="endArrow=classic;html=1;rounded=0;strokeWidth=0.5;exitX=0;exitY=0;exitDx=0;exitDy=0;" edge="1" parent="AN7pkXZCnYP8iV07z2iw-212" source="AN7pkXZCnYP8iV07z2iw-215">
          <mxGeometry width="50" height="50" relative="1" as="geometry">
            <mxPoint x="31" y="9" as="sourcePoint" />
            <mxPoint x="16" y="47" as="targetPoint" />
          </mxGeometry>
        </mxCell>
        <mxCell id="AN7pkXZCnYP8iV07z2iw-218" value="" style="group;rotation=45;" vertex="1" connectable="0" parent="AN7pkXZCnYP8iV07z2iw-206">
          <mxGeometry x="14" y="25" width="44.76720883021429" height="39.78917709066104" as="geometry" />
        </mxCell>
        <mxCell id="AN7pkXZCnYP8iV07z2iw-219" value="" style="group;rotation=60;" vertex="1" connectable="0" parent="AN7pkXZCnYP8iV07z2iw-218">
          <mxGeometry x="3" y="4" width="38.03999999999999" height="31" as="geometry" />
        </mxCell>
        <mxCell id="AN7pkXZCnYP8iV07z2iw-220" value="" style="endArrow=classic;html=1;rounded=0;strokeWidth=0.5;exitX=0.5;exitY=0;exitDx=0;exitDy=0;" edge="1" parent="AN7pkXZCnYP8iV07z2iw-219" source="AN7pkXZCnYP8iV07z2iw-221">
          <mxGeometry width="50" height="50" relative="1" as="geometry">
            <mxPoint x="1" y="-7" as="sourcePoint" />
            <mxPoint x="9" y="-2" as="targetPoint" />
          </mxGeometry>
        </mxCell>
        <mxCell id="AN7pkXZCnYP8iV07z2iw-221" value="&lt;p style=&quot;line-height: 40%;&quot;&gt;&lt;font style=&quot;font-size: 6px;&quot;&gt;Obstacle Detector&lt;/font&gt;&lt;/p&gt;" style="rounded=0;whiteSpace=wrap;html=1;rotation=-30;" vertex="1" parent="AN7pkXZCnYP8iV07z2iw-219">
          <mxGeometry x="7" y="13" width="31" height="20" as="geometry" />
        </mxCell>
        <mxCell id="AN7pkXZCnYP8iV07z2iw-222" value="" style="endArrow=classic;html=1;rounded=0;strokeWidth=0.5;exitX=1;exitY=0;exitDx=0;exitDy=0;" edge="1" parent="AN7pkXZCnYP8iV07z2iw-219" source="AN7pkXZCnYP8iV07z2iw-221">
          <mxGeometry width="50" height="50" relative="1" as="geometry">
            <mxPoint x="26" y="5" as="sourcePoint" />
            <mxPoint x="34" y="-15" as="targetPoint" />
          </mxGeometry>
        </mxCell>
        <mxCell id="AN7pkXZCnYP8iV07z2iw-223" value="" style="endArrow=classic;html=1;rounded=0;strokeWidth=0.5;exitX=0;exitY=0;exitDx=0;exitDy=0;" edge="1" parent="AN7pkXZCnYP8iV07z2iw-218" source="AN7pkXZCnYP8iV07z2iw-221">
          <mxGeometry width="50" height="50" relative="1" as="geometry">
            <mxPoint x="35" y="25" as="sourcePoint" />
            <mxPoint x="-4" y="19" as="targetPoint" />
          </mxGeometry>
        </mxCell>
        <mxCell id="AN7pkXZCnYP8iV07z2iw-224" value="&lt;p style=&quot;line-height: 40%;&quot;&gt;&lt;font style=&quot;font-size: 6px;&quot;&gt;Obstacle Detector&lt;/font&gt;&lt;/p&gt;" style="rounded=0;whiteSpace=wrap;html=1;rotation=-330;" vertex="1" parent="AN7pkXZCnYP8iV07z2iw-206">
          <mxGeometry x="55" y="30" width="31" height="20" as="geometry" />
        </mxCell>
        <mxCell id="AN7pkXZCnYP8iV07z2iw-225" value="" style="endArrow=classic;html=1;rounded=0;strokeWidth=0.5;exitX=1;exitY=0;exitDx=0;exitDy=0;" edge="1" parent="AN7pkXZCnYP8iV07z2iw-206" source="AN7pkXZCnYP8iV07z2iw-224">
          <mxGeometry width="50" height="50" relative="1" as="geometry">
            <mxPoint x="88" y="34" as="sourcePoint" />
            <mxPoint x="103" y="39" as="targetPoint" />
          </mxGeometry>
        </mxCell>
        <mxCell id="AN7pkXZCnYP8iV07z2iw-226" value="" style="endArrow=classic;html=1;rounded=0;strokeWidth=0.5;exitX=0;exitY=0;exitDx=0;exitDy=0;" edge="1" parent="AN7pkXZCnYP8iV07z2iw-206" source="AN7pkXZCnYP8iV07z2iw-224">
          <mxGeometry width="50" height="50" relative="1" as="geometry">
            <mxPoint x="77" y="47" as="sourcePoint" />
            <mxPoint x="61" y="10" as="targetPoint" />
          </mxGeometry>
        </mxCell>
        <mxCell id="AN7pkXZCnYP8iV07z2iw-227" value="" style="group;rotation=-135;" vertex="1" connectable="0" parent="AN7pkXZCnYP8iV07z2iw-206">
          <mxGeometry x="82" y="145" width="44.76720883021429" height="39.78917709066104" as="geometry" />
        </mxCell>
        <mxCell id="AN7pkXZCnYP8iV07z2iw-228" value="" style="group;rotation=-120;" vertex="1" connectable="0" parent="AN7pkXZCnYP8iV07z2iw-227">
          <mxGeometry x="3" y="4" width="38.03999999999999" height="31" as="geometry" />
        </mxCell>
        <mxCell id="AN7pkXZCnYP8iV07z2iw-229" value="" style="endArrow=classic;html=1;rounded=0;strokeWidth=0.5;exitX=0.5;exitY=0;exitDx=0;exitDy=0;" edge="1" parent="AN7pkXZCnYP8iV07z2iw-228" source="AN7pkXZCnYP8iV07z2iw-230">
          <mxGeometry width="50" height="50" relative="1" as="geometry">
            <mxPoint x="37" y="37" as="sourcePoint" />
            <mxPoint x="29" y="32" as="targetPoint" />
          </mxGeometry>
        </mxCell>
        <mxCell id="AN7pkXZCnYP8iV07z2iw-230" value="&lt;p style=&quot;line-height: 40%;&quot;&gt;&lt;font style=&quot;font-size: 6px;&quot;&gt;Obstacle Detector&lt;/font&gt;&lt;/p&gt;" style="rounded=0;whiteSpace=wrap;html=1;rotation=-210;" vertex="1" parent="AN7pkXZCnYP8iV07z2iw-228">
          <mxGeometry y="-2" width="31" height="20" as="geometry" />
        </mxCell>
        <mxCell id="AN7pkXZCnYP8iV07z2iw-231" value="" style="endArrow=classic;html=1;rounded=0;strokeWidth=0.5;exitX=1;exitY=0;exitDx=0;exitDy=0;" edge="1" parent="AN7pkXZCnYP8iV07z2iw-228" source="AN7pkXZCnYP8iV07z2iw-230">
          <mxGeometry width="50" height="50" relative="1" as="geometry">
            <mxPoint x="12" y="25" as="sourcePoint" />
            <mxPoint x="-3" y="36" as="targetPoint" />
          </mxGeometry>
        </mxCell>
        <mxCell id="AN7pkXZCnYP8iV07z2iw-232" value="" style="endArrow=classic;html=1;rounded=0;strokeWidth=0.5;exitX=0;exitY=0;exitDx=0;exitDy=0;" edge="1" parent="AN7pkXZCnYP8iV07z2iw-227" source="AN7pkXZCnYP8iV07z2iw-230">
          <mxGeometry width="50" height="50" relative="1" as="geometry">
            <mxPoint x="10" y="15" as="sourcePoint" />
            <mxPoint x="49" y="21" as="targetPoint" />
          </mxGeometry>
        </mxCell>
        <mxCell id="AN7pkXZCnYP8iV07z2iw-235" value="" style="rounded=0;whiteSpace=wrap;html=1;" vertex="1" parent="1">
          <mxGeometry x="80" y="170" width="240" height="390" as="geometry" />
        </mxCell>
      </root>
    </mxGraphModel>
  </diagram>
</mxfile>
